<?xml version="1.0" standalone="no"?>
<!DOCTYPE svg PUBLIC "-//W3C//DTD SVG 20010904//EN"
 "http://www.w3.org/TR/2001/REC-SVG-20010904/DTD/svg10.dtd">
<svg version="1.0" xmlns="http://www.w3.org/2000/svg"
 width="500.000000pt" height="500.000000pt" viewBox="0 0 500.000000 500.000000"
 preserveAspectRatio="xMidYMid meet">

<g transform="translate(0.000000,500.000000) scale(0.100000,-0.100000)"
fill="#000000" stroke="none">
<path d="M88 4990 c-14 -4 -40 -16 -57 -26 l-31 -18 0 -2473 0 -2473 2500 0
2500 0 0 2485 0 2484 -22 13 c-19 11 -492 13 -2443 15 -1331 1 -2432 -2 -2447
-7z m1182 -1400 c10 -5 181 -237 381 -515 200 -278 369 -505 376 -505 10 0 13
95 13 495 0 482 1 496 20 515 19 19 33 20 248 20 164 0 231 -3 240 -12 9 -9
12 -255 12 -1044 0 -925 -2 -1034 -16 -1048 -13 -14 -50 -16 -244 -16 -203 0
-230 2 -248 18 -11 9 -192 251 -403 537 -409 556 -417 567 -430 559 -5 -3 -9
-250 -9 -549 0 -528 -1 -545 -19 -555 -12 -6 -108 -10 -243 -10 -178 0 -228 3
-244 14 -19 14 -19 36 -19 1046 0 1010 0 1032 19 1046 16 11 72 14 284 14 153
0 271 -4 282 -10z m3205 -6 c14 -14 16 -42 13 -215 -3 -174 -5 -200 -21 -216
-16 -17 -54 -18 -478 -23 -394 -4 -461 -7 -469 -20 -5 -8 -10 -86 -10 -172 0
-151 1 -157 22 -172 19 -14 65 -16 305 -16 269 0 283 1 293 -19 15 -29 13
-404 -2 -419 -9 -9 -88 -12 -296 -12 -176 0 -291 -4 -303 -10 -18 -10 -19 -25
-19 -386 l0 -375 -25 -24 -24 -25 -281 0 c-267 0 -281 1 -300 20 -20 20 -20
33 -20 1042 0 936 1 1023 17 1040 15 17 53 18 799 18 710 0 784 -2 799 -16z"
stroke="#FFFFFF" stroke-width="5"/>
</g>
</svg>
