<?xml version="1.0" encoding="UTF-8"?>
<svg version="1.1" xmlns="http://www.w3.org/2000/svg" width="500" height="500">
<path d="M0 0 C165 0 330 0 500 0 C500 165 500 330 500 500 C335 500 170 500 0 500 C0 335 0 170 0 0 Z " fill="#272727" transform="translate(0,0)"/>
<path d="M0 0 C3.88624967 -0.15841491 7.77166591 -0.25468208 11.66015625 -0.33984375 C12.75928345 -0.38540405 13.85841064 -0.43096436 14.99084473 -0.47790527 C22.98486319 -0.60940076 22.98486319 -0.60940076 25.94126129 1.16536617 C28.33908792 3.53037789 30.13267161 6.23468552 31.53125 9.28515625 C34.58193797 15.36653205 38.56347551 20.79770819 42.4375 26.375 C43.92076303 28.55669663 45.40127866 30.7402639 46.87890625 32.92578125 C50.19403116 37.81644102 53.52385476 42.69646193 56.875 47.5625 C57.3069165 48.18970947 57.73883301 48.81691895 58.18383789 49.46313477 C59.0325205 50.69495814 59.88139381 51.92665015 60.73046875 53.15820312 C62.94759045 56.37473507 65.16143251 59.59352145 67.375 62.8125 C67.82407715 63.46549072 68.2731543 64.11848145 68.73583984 64.79125977 C72.88663405 70.82964562 77.02302863 76.87784851 81.15917969 82.92626953 C86.42615184 90.62667659 91.71119245 98.31458053 97 106 C103.39969408 115.29970186 109.7868389 124.60779944 116.15917969 133.92626953 C121.42615184 141.62667659 126.71119245 149.31458053 132 157 C138.39657445 166.29516859 144.78374256 175.59657318 151.14599609 184.9152832 C154.31738456 189.55607826 157.50762935 194.18346857 160.70849609 198.80395508 C161.12270309 199.40205238 161.5369101 200.00014969 161.96366882 200.61637115 C162.97568302 202.0776474 163.98782804 203.53883303 165 205 C165.04694317 185.28358955 165.0820973 165.56719062 165.10362434 145.85073566 C165.11389014 136.69384697 165.1278594 127.53699321 165.15087891 118.38012695 C165.17095794 110.3890622 165.18375045 102.39802277 165.18817699 94.40693349 C165.19076009 90.18475814 165.19673054 85.9626552 165.21146011 81.74050331 C165.28197636 60.71211325 164.87604042 40.06317588 161.4375 19.25 C160.46331801 13.17510102 159.64006862 7.12027516 159 1 C164.94 1 170.88 1 177 1 C175.88432836 8.80970149 175.88432836 8.80970149 175.31640625 11.98828125 C175.19330078 12.69662109 175.07019531 13.40496094 174.94335938 14.13476562 C174.69685999 15.54423649 174.44707516 16.95313838 174.19335938 18.36132812 C171.68078205 32.95510624 170.69973024 47.4168902 170.68115234 62.19970703 C170.67182228 63.93633474 170.66164922 65.67295809 170.65071106 67.40957642 C170.62374328 72.06124556 170.608362 76.71288502 170.59528303 81.36461115 C170.57950471 86.24928291 170.55276256 91.13389529 170.5272522 96.01852417 C170.48072183 105.24021999 170.44385432 114.46192732 170.41057932 123.68367946 C170.37217446 134.19421204 170.3228133 144.70468459 170.27259517 155.21516633 C170.16965885 176.81006639 170.08027562 198.40500457 170 220 C165.48027642 220.26248767 160.962517 220.42158252 156.4375 220.5625 C155.16068359 220.63791016 153.88386719 220.71332031 152.56835938 220.79101562 C143.24983926 221.00885116 143.24983926 221.00885116 139.62051392 218.07931519 C137.83612816 215.79522811 136.39499292 213.53650134 135 211 C134.20643231 209.82832863 133.4041378 208.66241709 132.5859375 207.5078125 C131.84577128 206.38229776 131.10887301 205.25462819 130.375 204.125 C129.51538938 202.8196096 128.65465575 201.51495822 127.79296875 200.2109375 C127.34228027 199.52870117 126.8915918 198.84646484 126.42724609 198.14355469 C123.88253026 194.32169272 121.2844371 190.53648933 118.6875 186.75 C118.13868164 185.94941162 117.58986328 185.14882324 117.02441406 184.32397461 C115.90472204 182.69122627 114.78476672 181.05865846 113.66455078 179.42626953 C110.98155345 175.51549987 108.30313392 171.60160113 105.625 167.6875 C105.09414795 166.91180664 104.5632959 166.13611328 104.01635742 165.33691406 C99.19812826 158.29427751 94.39193975 151.24345485 89.58642578 144.19213867 C85.5637608 138.29054057 81.53485326 132.39327089 77.5 126.5 C72.18524521 118.73731628 66.88399431 110.96549369 61.5859375 103.19140625 C57.56342194 97.2900614 53.5346875 91.39302879 49.5 85.5 C44.18880422 77.74251454 38.89047551 69.97632205 33.59692383 62.20678711 C30.57390574 57.77086637 27.54779276 53.33715375 24.51171875 48.91015625 C23.67060547 47.68329102 23.67060547 47.68329102 22.8125 46.43164062 C21.78860632 44.93887256 20.76397062 43.44661293 19.73828125 41.95507812 C16.38290248 37.06257314 13.08231823 32.13484283 9.79418945 27.19702148 C9.33209328 26.50346306 8.8699971 25.80990463 8.39389801 25.09532928 C7.26240476 23.39701537 6.13117561 21.6985255 5 20 C4.92952208 39.79496838 4.87682374 59.58991086 4.84456348 79.38497925 C4.8291779 88.57879869 4.80825002 97.7725396 4.77368164 106.96630859 C4.74352194 114.99146236 4.72436487 123.01655919 4.71773452 131.04176807 C4.7138666 135.28028743 4.70495638 139.51864407 4.68280983 143.7571106 C4.56685731 166.86143907 5.73604718 189.15973488 10.44921875 211.85546875 C11 215 11 215 11 220 C5.06 220 -0.88 220 -7 220 C-6.71125 217.586875 -6.4225 215.17375 -6.125 212.6875 C-6.03879395 211.95233154 -5.95258789 211.21716309 -5.86376953 210.4597168 C-5.38955301 206.58828526 -4.77705073 202.77700547 -4.02914429 198.94868469 C0.10837914 176.28483972 -0.66483489 152.69876153 -0.59528303 129.74213433 C-0.57937818 125.16180966 -0.55267948 120.5815464 -0.5272522 116.00126648 C-0.48093847 107.37485965 -0.44396914 98.74844062 -0.41057932 90.12197512 C-0.37201737 80.28111074 -0.32269972 70.44030876 -0.27259517 60.59949744 C-0.16998274 40.39971136 -0.08049852 20.19988555 0 0 Z " fill="#E9E3D9" transform="translate(98,124)"/>
<path d="M0 0 C46.53 0 93.06 0 141 0 C141 7.26 141 14.52 141 22 C131.125 18.1875 131.125 18.1875 128.07861328 17.00463867 C117.82870587 13.07487565 107.99711651 10.46449072 97.125 8.875 C96.03058594 8.70613281 94.93617188 8.53726563 93.80859375 8.36328125 C72.91317103 5.22278576 52.25952032 5.51852489 31 5 C31 34.7 31 64.4 31 95 C60.37 95 89.74 95 120 95 C120 96.32 120 97.64 120 99 C90.63 99 61.26 99 31 99 C31 138.93 31 178.86 31 220 C20.77 220 10.54 220 0 220 C0 147.4 0 74.8 0 0 Z " fill="#E9E3D8" transform="translate(310,124)"/>
</svg>

